<?xml version="1.0" encoding="UTF-8"?>
<svg version="1.1" xmlns="http://www.w3.org/2000/svg" width="131" height="87">
<defs>
  <filter id="neonGlow">
    <feGaussianBlur stdDeviation="1.5" result="coloredBlur"/>
    <feMerge>
      <feMergeNode in="coloredBlur"/>
      <feMergeNode in="SourceGraphic"/>
    </feMerge>
  </filter>
</defs>
<g filter="url(#neonGlow)" stroke="#00ff88" stroke-width="1.5" fill="none" stroke-linecap="round" stroke-linejoin="round" stroke-linejoin="round">
<path d="M0 0 C5.39151481 0.88385489 8.23862121 3.61384662 11.8125 7.625 C13.1875 10.125 13.1875 10.125 13.8125 12.625 C14.18375 13.615 14.555 14.605 14.9375 15.625 C16.7064015 22.07795267 16.98354635 30.16562629 14.875 36.5625 C11.96694282 40.88052429 8.57867949 43.52693096 3.8125 45.625 C0.12311103 45.68450627 -1.95134142 45.60892417 -4.85855103 43.29492188 C-7.18000165 40.37784887 -6.61286094 36.69979053 -6.5859375 33.125 C-6.58880768 32.29291016 -6.59167786 31.46082031 -6.59463501 30.60351562 C-6.59667562 28.84504516 -6.59114593 27.08655199 -6.57861328 25.328125 C-6.56255902 22.63490087 -6.57846145 19.9431774 -6.59765625 17.25 C-6.59567382 15.54166335 -6.59183014 13.83332764 -6.5859375 12.125 C-6.59201019 11.31869141 -6.59808289 10.51238281 -6.6043396 9.68164062 C-6.5336469 4.06838437 -6.5336469 4.06838437 -4.86245728 1.92773438 C-3.1875 0.625 -3.1875 0.625 0 0 Z M-1.1875 3.625 C-3.59872368 5.59035717 -3.59872368 5.59035717 -3.3828125 9.3203125 C-3.369509 10.79700108 -3.34564835 12.27362358 -3.3125 13.75 C-3.30347656 14.50410156 -3.29445313 15.25820313 -3.28515625 16.03515625 C-3.2615687 17.89857254 -3.22569719 19.76182593 -3.1875 21.625 C-1.5375 21.955 0.1125 22.285 1.8125 22.625 C2.4725 21.305 3.1325 19.985 3.8125 18.625 C2.94625 17.75875 2.08 16.8925 1.1875 16 C-0.19921875 14.3515625 -0.19921875 14.3515625 -1.1875 12.625 C-0.55565653 8.97434886 0.19763431 7.23986569 2.8125 4.625 C0.92070797 3.9435177 0.92070797 3.9435177 -1.1875 3.625 Z M3.8125 7.625 C2.8225 8.285 1.8325 8.945 0.8125 9.625 C1.1425 11.275 1.4725 12.925 1.8125 14.625 C3.1325 14.625 4.4525 14.625 5.8125 14.625 C5.8125 13.305 5.8125 11.985 5.8125 10.625 C6.8025 10.295 7.7925 9.965 8.8125 9.625 C6.48395537 8.42661791 6.48395537 8.42661791 3.8125 7.625 Z M6.8125 13.625 C7.1425 14.615 7.4725 15.605 7.8125 16.625 C7.1525 16.625 6.4925 16.625 5.8125 16.625 C6.1425 17.945 6.4725 19.265 6.8125 20.625 C5.8225 20.955 4.8325 21.285 3.8125 21.625 C3.8125 22.285 3.8125 22.945 3.8125 23.625 C1.5025 23.955 -0.8075 24.285 -3.1875 24.625 C-3.1875 27.265 -3.1875 29.905 -3.1875 32.625 C-1.8675 32.295 -0.5475 31.965 0.8125 31.625 C0.131875 32.16125 -0.54875 32.6975 -1.25 33.25 C-3.57009327 35.53662152 -3.57009327 35.53662152 -2.9375 38.875 C-2.69 39.7825 -2.4425 40.69 -2.1875 41.625 C-0.29570797 42.3064823 -0.29570797 42.3064823 1.8125 42.625 C2.4725 41.965 3.1325 41.305 3.8125 40.625 C3.1525 40.295 2.4925 39.965 1.8125 39.625 C2.1425 38.635 2.4725 37.645 2.8125 36.625 C3.4725 37.285 4.1325 37.945 4.8125 38.625 C7.41530568 38.30458603 7.41530568 38.30458603 9.8125 37.625 C10.74673645 34.61468256 10.85699911 33.75849732 9.8125 30.625 C10.8025 30.625 11.7925 30.625 12.8125 30.625 C12.8125 27.655 12.8125 24.685 12.8125 21.625 C11.4925 21.955 10.1725 22.285 8.8125 22.625 C8.8125 21.635 8.8125 20.645 8.8125 19.625 C9.4725 19.625 10.1325 19.625 10.8125 19.625 C11.4939823 17.73320797 11.4939823 17.73320797 11.8125 15.625 C11.1525 14.965 10.4925 14.305 9.8125 13.625 C8.8225 13.625 7.8325 13.625 6.8125 13.625 Z " fill="none" transform="translate(72.1875,19.375)"/>
<path d="M0 0 C0 17.16 0 34.32 0 52 C-2.97 52 -5.94 52 -9 52 C-10.84375 49.87109375 -10.84375 49.87109375 -12 47 C-12.5671875 46.04222656 -13.134375 45.08445313 -13.71875 44.09765625 C-14.3065625 43.09605469 -14.894375 42.09445313 -15.5 41.0625 C-16.0878125 40.06347656 -16.675625 39.06445312 -17.28125 38.03515625 C-21.48549797 30.61083654 -23.11127149 25.56650058 -22 17 C-19.92825335 9.85397533 -16.39615549 5.85980015 -10.0859375 2.05859375 C-6.35951562 0.16746954 -4.3440759 0 0 0 Z M-13.08984375 8.0390625 C-17.50251296 12.56904194 -19.35423896 18.41622132 -19.3125 24.6875 C-18.37759555 31.07940109 -14.56791768 36.35198697 -11.12890625 41.6796875 C-9.57760746 44.09914433 -8.19609401 46.39865892 -7 49 C-5.68 49 -4.36 49 -3 49 C-3 34.15 -3 19.3 -3 4 C-7.84299439 4 -9.41336158 5.11162062 -13.08984375 8.0390625 Z " fill="none" transform="translate(65,18)"/>
<path d="M0 0 C5.61 0 11.22 0 17 0 C17.33 0.99 17.66 1.98 18 3 C17.01 3.66 16.02 4.32 15 5 C14.835 5.66 14.67 6.32 14.5 7 C14 9 14 9 11 11 C4.54716981 10.54716981 4.54716981 10.54716981 2 8 C1.835 7.319375 1.67 6.63875 1.5 5.9375 C1.335 5.298125 1.17 4.65875 1 4 C0.34 3.67 -0.32 3.34 -1 3 C-0.67 2.01 -0.34 1.02 0 0 Z M4 3 C4 3.33 4 3.66 4 4 C7.3 4 10.6 4 14 4 C14 3.67 14 3.34 14 3 C10.7 3 7.4 3 4 3 Z " fill="none" transform="translate(57,75)"/>
<path d="M0 0 C6.27 0 12.54 0 19 0 C19 0.99 19 1.98 19 3 C12.73 3 6.46 3 0 3 C0 2.01 0 1.02 0 0 Z " fill="none" transform="translate(56,71)"/>
<path d="M0 0 C1.37478516 0.01740234 1.37478516 0.01740234 2.77734375 0.03515625 C3.69644531 0.04417969 4.61554688 0.05320313 5.5625 0.0625 C6.27277344 0.07410156 6.98304687 0.08570313 7.71484375 0.09765625 C7.71484375 1.41765625 7.71484375 2.73765625 7.71484375 4.09765625 C6.25741912 4.17862428 4.79871568 4.23683399 3.33984375 4.28515625 C2.52773437 4.31996094 1.715625 4.35476562 0.87890625 4.390625 C0.16476563 4.29394531 -0.549375 4.19726562 -1.28515625 4.09765625 C-1.94515625 3.10765625 -2.60515625 2.11765625 -3.28515625 1.09765625 C-2.28515625 0.09765625 -2.28515625 0.09765625 0 0 Z " fill="none" transform="translate(97.28515625,39.90234375)"/>
<path d="M0 0 C3.3 0 6.6 0 10 0 C9.67 1.32 9.34 2.64 9 4 C6.03 4 3.06 4 0 4 C0 2.68 0 1.36 0 0 Z " fill="none" transform="translate(26,40)"/>
<path d="M0 0 C4.23090117 0.30220723 6.25186236 3.02285089 9 6 C8.67 6.99 8.34 7.98 8 9 C3.7257442 7.4169423 1.73468206 4.49431596 -1 1 C-0.67 0.67 -0.34 0.34 0 0 Z " transform="translate(86,62)"/>
<path d="M0 0 C-0.47202486 4.24822374 -2.96655518 6.19989709 -6 9 C-6.99 8.67 -7.98 8.34 -9 8 C-7.13554727 3.64961029 -5.02378599 0 0 0 Z " transform="translate(45,62)"/>
<path d="M0 0 C0.7425 0.185625 1.485 0.37125 2.25 0.5625 C4.94990963 0.99203108 6.44631077 0.85122974 9 0 C8.34 1.32 7.68 2.64 7 4 C6.34 4 5.68 4 5 4 C4.34 5.65 3.68 7.3 3 9 C2.34 9 1.68 9 1 9 C1.020625 8.2575 1.04125 7.515 1.0625 6.75 C1.00671312 4.29537721 0.6930096 2.33890739 0 0 Z " transform="translate(74,45)"/>
<path d="M0 0 C0.99 0.33 1.98 0.66 3 1 C1.64458676 5.06623972 -0.57009469 6.53046818 -4 9 C-4.99 8.67 -5.98 8.34 -7 8 C-6.02133662 6.85373678 -5.04205413 5.70800212 -4.0625 4.5625 C-3.51722656 3.92441406 -2.97195312 3.28632813 -2.41015625 2.62890625 C-1.63204305 1.73008851 -0.84063472 0.84063472 0 0 Z " transform="translate(92,13)"/>
<path d="M0 0 C3.36295835 1.44126786 5.62927102 3.20592655 8 6 C8 6.99 8 7.98 8 9 C4.56404834 7.47291037 1.88087546 5.40072955 -1 3 C-0.67 2.01 -0.34 1.02 0 0 Z " transform="translate(37,13)"/>
<path d="M0 0 C0.99 0 1.98 0 3 0 C3 3.63 3 7.26 3 11 C2.01 11 1.02 11 0 11 C0 7.37 0 3.74 0 0 Z " transform="translate(64,2)"/>
</g>
</svg>
